<?xml version="1.0" encoding="UTF-8" standalone="no"?>
<svg
   width="1151"
   height="180"
   viewBox="0 0 1151 180"
   preserveAspectRatio="none"
   version="1.1"
   id="svg13"
   sodipodi:docname="gift.svg"
   inkscape:version="1.2.2 (b0a8486541, 2022-12-01)"
   inkscape:export-filename="gift.png"
   inkscape:export-xdpi="96"
   inkscape:export-ydpi="96"
   xmlns:inkscape="http://www.inkscape.org/namespaces/inkscape"
   xmlns:sodipodi="http://sodipodi.sourceforge.net/DTD/sodipodi-0.dtd"
   xmlns="http://www.w3.org/2000/svg"
   xmlns:svg="http://www.w3.org/2000/svg">
  <sodipodi:namedview
     id="namedview15"
     pagecolor="#ffffff"
     bordercolor="#000000"
     borderopacity="0.25"
     inkscape:showpageshadow="2"
     inkscape:pageopacity="0.0"
     inkscape:pagecheckerboard="0"
     inkscape:deskcolor="#d1d1d1"
     showgrid="false"
     inkscape:zoom="0.47041456"
     inkscape:cx="213.64135"
     inkscape:cy="112.66658"
     inkscape:window-width="1920"
     inkscape:window-height="1011"
     inkscape:window-x="0"
     inkscape:window-y="0"
     inkscape:window-maximized="1"
     inkscape:current-layer="svg13" />
  <defs
     id="defs4">
    <style
       type="text/css"
       id="style2">#holder_185873eeed4 text { fill:rgba(255,255,255,.75);font-weight:normal;font-family:Helvetica, monospace;font-size:58pt } </style>
  </defs>
  <g
     id="holder_185873eeed4"
     style="fill:#f5e7e7;fill-opacity:1">
    <rect
       width="1151"
       height="180"
       fill="#777"
       id="rect6"
       style="fill:#f5e7e7;fill-opacity:1" />
    <g
       id="g10"
       style="fill:#f5e7e7;fill-opacity:1">
      <text
         x="408.515625"
         y="115.8"
         id="text8"
         style="fill:#f5e7e7;fill-opacity:1">1151x180</text>
    </g>
  </g>
  <g
     transform="matrix(0.01170481,0,0,-0.01170481,14.37025,167.85874)"
     fill="#000000"
     stroke="none"
     id="g1229">
    <path
       d="m 2110,12793 c -352,-33 -538,-72 -763,-162 -381,-152 -638,-411 -725,-731 -50,-180 -54,-396 -12,-560 42,-167 148,-350 263,-456 234,-216 1026,-406 2107,-503 643,-58 516,-56 3285,-56 2669,0 2602,-1 2750,41 109,31 144,74 165,204 26,163 51,220 172,379 97,127 156,240 193,366 52,173 45,440 -15,625 -103,315 -372,564 -770,713 -516,193 -1260,194 -1985,2 -264,-70 -467,-146 -698,-260 l -148,-74 -52,33 c -232,148 -581,245 -837,233 -248,-12 -547,-105 -754,-234 l -48,-30 -152,72 c -463,223 -964,355 -1506,395 -125,9 -388,11 -470,3 z m 490,-954 c 140,-14 308,-43 460,-80 280,-69 618,-199 612,-236 -1,-10 -10,-71 -19,-135 l -17,-118 h -421 c -580,0 -870,19 -1152,75 -219,44 -385,109 -448,175 -24,25 -28,37 -27,85 1,71 19,93 117,140 200,96 521,130 895,94 z m 5494,0 c 182,-19 390,-87 453,-148 27,-26 40,-100 23,-140 -34,-83 -249,-170 -545,-220 -272,-46 -535,-61 -1077,-61 h -428 v 43 c 0,24 -7,85 -16,136 -9,51 -14,94 -12,95 14,9 197,88 253,109 296,110 679,187 1000,200 92,4 226,-1 349,-14 z"
       id="path1219"
       style="fill:#c83737" />
    <path
       d="M 715,10039 C 366,9989 84,9731 16,9398 -7,9285 -7,8485 16,8372 c 65,-315 315,-558 646,-626 69,-14 296,-16 2163,-16 h 2085 v 1160 1160 l -2067,-1 c -1138,-1 -2095,-5 -2128,-10 z"
       id="path1221"
       style="fill:#d35f5f;fill-opacity:1" />
    <path
       d="M 5290,8890 V 7730 h 2085 c 1867,0 2094,2 2163,16 331,68 581,311 646,626 23,113 23,913 0,1026 -50,246 -213,451 -447,563 -45,21 -118,49 -162,61 l -80,23 -2102,3 -2103,2 z"
       id="path1223"
       style="fill:#d35f5f" />
    <path
       d="M 880,3993 C 880,1820 884,714 890,672 939,375 1161,131 1475,33 L 1565,5 3238,2 4910,0 V 3625 7250 H 2895 880 Z"
       id="path1225"
       style="fill:#ff8080;fill-opacity:1" />
    <path
       d="M 5290,3625 V 0 l 1673,2 1672,3 90,28 c 283,88 482,285 567,557 l 23,75 3,3293 2,3292 H 7305 5290 Z"
       id="path1227"
       style="fill:#ff8080;fill-opacity:1" />
  </g>
  <g
     transform="matrix(0.01170481,0,0,-0.01170481,1018.3703,167.85874)"
     fill="#000000"
     stroke="none"
     id="g2526">
    <path
       d="m 2110,12793 c -352,-33 -538,-72 -763,-162 -381,-152 -638,-411 -725,-731 -50,-180 -54,-396 -12,-560 42,-167 148,-350 263,-456 234,-216 1026,-406 2107,-503 643,-58 516,-56 3285,-56 2669,0 2602,-1 2750,41 109,31 144,74 165,204 26,163 51,220 172,379 97,127 156,240 193,366 52,173 45,440 -15,625 -103,315 -372,564 -770,713 -516,193 -1260,194 -1985,2 -264,-70 -467,-146 -698,-260 l -148,-74 -52,33 c -232,148 -581,245 -837,233 -248,-12 -547,-105 -754,-234 l -48,-30 -152,72 c -463,223 -964,355 -1506,395 -125,9 -388,11 -470,3 z m 490,-954 c 140,-14 308,-43 460,-80 280,-69 618,-199 612,-236 -1,-10 -10,-71 -19,-135 l -17,-118 h -421 c -580,0 -870,19 -1152,75 -219,44 -385,109 -448,175 -24,25 -28,37 -27,85 1,71 19,93 117,140 200,96 521,130 895,94 z m 5494,0 c 182,-19 390,-87 453,-148 27,-26 40,-100 23,-140 -34,-83 -249,-170 -545,-220 -272,-46 -535,-61 -1077,-61 h -428 v 43 c 0,24 -7,85 -16,136 -9,51 -14,94 -12,95 14,9 197,88 253,109 296,110 679,187 1000,200 92,4 226,-1 349,-14 z"
       id="path2516"
       style="fill:#c83737" />
    <path
       d="M 715,10039 C 366,9989 84,9731 16,9398 -7,9285 -7,8485 16,8372 c 65,-315 315,-558 646,-626 69,-14 296,-16 2163,-16 h 2085 v 1160 1160 l -2067,-1 c -1138,-1 -2095,-5 -2128,-10 z"
       id="path2518"
       style="fill:#d35f5f;fill-opacity:1" />
    <path
       d="M 5290,8890 V 7730 h 2085 c 1867,0 2094,2 2163,16 331,68 581,311 646,626 23,113 23,913 0,1026 -50,246 -213,451 -447,563 -45,21 -118,49 -162,61 l -80,23 -2102,3 -2103,2 z"
       id="path2520"
       style="fill:#d35f5f" />
    <path
       d="M 880,3993 C 880,1820 884,714 890,672 939,375 1161,131 1475,33 L 1565,5 3238,2 4910,0 V 3625 7250 H 2895 880 Z"
       id="path2522"
       style="fill:#ff8080;fill-opacity:1" />
    <path
       d="M 5290,3625 V 0 l 1673,2 1672,3 90,28 c 283,88 482,285 567,557 l 23,75 3,3293 2,3292 H 7305 5290 Z"
       id="path2524"
       style="fill:#ff8080;fill-opacity:1" />
  </g>
  <g
     aria-label="Сервис подарков "
     id="text2632"
     style="font-size:96px;font-family:'Nexa Script';-inkscape-font-specification:'Nexa Script';fill:#c83737;stroke-width:6.30933;stroke-linecap:round;paint-order:markers fill stroke">
    <path
       d="m 282.95503,10.112872 q 6.816,0.384 9.792,5.472 2.976,5.088 0.096,11.904 -2.112,5.28 -7.584,8.064 -5.376,2.688 -12.096,2.016 -6.72,-0.768 -12.288,-4.992 -4.128,9.12 -4.32,17.952 -0.192,10.752 3.552,16.224 3.744,5.472 10.656,5.28 6.336,-0.096 12.192,-4.032 5.952,-3.936 9.888,-13.152 0.384,-0.384 1.152,-0.192 0.768,0.096 1.44,0.768 0.672,0.672 0.384,1.248 -4.608,10.944 -11.232,16.032 -6.528,4.992 -16.128,5.184 -10.272,0.192 -15.552,-7.392 -5.28,-7.584 -4.512,-19.68 0.96,-13.44 7.776,-24.384 -4.992,-7.68 -5.28,-14.304 -0.096,-0.96 0.96,-1.344 1.056,-0.48 2.208,-0.096 1.248,0.384 1.344,1.344 0.288,4.032 3.744,10.176 10.464,-12.8640002 23.808,-12.096 z m -1.344,6.048 q -10.272,-0.576 -17.952,11.424 5.664,4.608 12.48,3.84 6.912,-0.768 9.12,-5.472 2.112,-3.552 0.96,-6.528 -1.056,-3.072 -4.608,-3.264 z"
       id="path354" />
    <path
       d="m 315.40309,36.416872 q 4.704,0.192 7.392,2.784 2.784,2.496 2.88,5.856 0.192,3.36 -1.344,6.912 -2.88,5.76 -9.312,7.872 -6.432,2.112 -14.976,-0.192 -0.768,5.088 1.536,8.544 2.4,3.456 7.296,4.128 3.84,0.576 8.064,-0.672 4.224,-1.344 8.736,-5.664 4.512,-4.32 7.392,-11.136 0.288,-0.384 0.96,-0.192 0.768,0.096 1.44,0.768 0.672,0.672 0.48,1.248 -8.928,22.272 -28.32,21.312 -9.696,-0.576 -13.632,-7.2 -3.84,-6.72 -1.344,-15.552 2.496,-8.928 8.928,-14.112 6.432,-5.184 13.824,-4.704 z m -1.248,5.472 q -3.84,-0.096 -7.872,4.032 -3.936,4.032 -5.472,9.6 12.384,2.4 16.224,-5.088 1.824,-2.88 1.152,-5.664 -0.576,-2.88 -4.032,-2.88 z"
       id="path356" />
    <path
       d="m 357.83502,36.416872 q 5.472,0.096 8.064,3.744 2.592,3.648 2.304,8.832 -0.192,5.088 -1.728,10.176 -1.536,4.992 -3.744,8.256 4.896,0.864 8.64,-2.016 3.84,-2.88 6.912,-10.56 0.288,-0.384 1.056,-0.192 0.768,0.096 1.44,0.768 0.672,0.672 0.48,1.248 -4.128,9.888 -9.696,12.96 -5.472,3.072 -11.52,1.056 -4.128,4.512 -9.12,6.24 -4.896,1.632 -8.928,0.576 -4.032,-1.056 -6.528,-4.224 -0.96,4.608 -3.456,14.976 -2.496,10.464 -3.456,15.455998 -0.288,0.864 -2.112,1.056 -1.824,0.288 -3.456,-0.192 -1.728,-0.48 -1.632,-1.344 6.912,-29.951998 15.744,-65.279998 0.288,-1.056 2.112,-1.248 1.92,-0.288 3.648,0.48 1.728,0.768 1.632,2.208 l -1.152,3.552 q 2.88,-3.072 6.912,-4.8 4.032,-1.824 7.584,-1.728 z m -3.36,5.76 q -3.072,0 -6.72,2.112 -3.552,2.112 -5.952,4.896 -2.4,9.024 -4.896,19.2 2.688,4.032 8.064,3.936 5.376,-0.096 8.832,-4.224 -1.152,-1.248 -0.864,-2.592 0.288,-1.44 1.536,-2.208 1.248,-0.864 2.208,-0.096 1.632,-3.264 2.496,-6.816 0.96,-3.648 1.056,-6.816 0.096,-3.264 -1.344,-5.28 -1.44,-2.112 -4.416,-2.112 z"
       id="path358" />
    <path
       d="m 390.18703,77.696872 q -14.88,-0.672 -12,-20.64 2.976,-23.232 10.848,-35.712 6.336,-9.984 15.744,-10.56 4.704,-0.192 7.68,1.824 3.072,2.016 3.744,5.472 0.672,3.36 -0.192,7.104 -0.864,3.744 -3.84,7.488 -2.976,3.744 -7.392,6.048 4.224,0.192 6.528,3.36 2.304,3.072 2.496,7.488 0.192,4.32 -1.152,9.216 -1.344,4.896 -3.936,8.832 4.896,0.672 8.64,-2.016 3.84,-2.688 7.008,-10.656 0.288,-0.384 1.056,-0.192 0.768,0.096 1.44,0.768 0.672,0.672 0.384,1.248 -4.32,9.888 -9.408,12.864 -5.088,2.976 -12,1.152 -6.912,7.296 -15.648,6.912 z m -1.44,-35.808 q 9.984,-4.992 12.48,-6.912 5.472,-3.936 7.488,-10.08 1.92,-5.76 -1.44,-7.392 -0.96,-0.48 -2.112,-0.48 -9.984,-0.384 -16.416,24.864 z m 2.496,30.336 q 4.416,0.192 8.64,-4.128 -1.536,-1.92 -0.096,-3.744 1.44,-1.92 3.168,-1.056 2.688,-4.896 3.168,-9.408 0.576,-4.608 -0.96,-7.392 -1.44,-2.784 -4.512,-2.88 -6.048,-0.288 -13.536,5.376 -5.088,22.848 4.128,23.232 z"
       id="path360" />
    <path
       d="m 452.58699,38.048872 q 0.672,-1.632 4.128,-1.056 3.456,0.48 3.36,2.304 -1.44,4.224 -2.688,8.736 -1.248,4.416 -2.688,10.368 -1.44,5.952 -1.344,9.696 0.096,3.744 2.016,3.744 3.072,0.096 7.008,-4.896 4.032,-5.088 6.816,-12 0.288,-0.48 1.056,-0.288 0.768,0.096 1.44,0.768 0.672,0.672 0.384,1.248 -5.28,11.04 -9.408,15.456 -4.896,5.184 -9.984,5.088 -3.84,0 -5.376,-3.648 -1.44,-3.648 -0.288,-7.968 -7.68,12.864 -17.664,12.192 -4.32,-0.096 -6.336,-3.168 -2.016,-3.168 -1.152,-8.256 0.672,-4.512 1.92,-9.408 1.248,-4.896 2.88,-10.368 1.632,-5.472 2.304,-8.256 0.384,-1.152 2.208,-1.44 1.92,-0.288 3.552,0.384 1.728,0.672 1.632,1.728 -0.48,2.016 -2.688,10.368 -2.208,8.352 -3.264,13.152 -1.056,3.648 -0.768,6.624 0.384,2.976 3.072,3.072 3.264,0 7.488,-3.84 4.224,-3.84 6.528,-10.368 1.92,-5.568 5.856,-19.968 z"
       id="path362" />
    <path
       d="m 491.08308,36.320872 q 5.664,0.096 8.352,2.88 2.688,2.784 2.016,6.432 -0.576,3.552 -3.744,6.336 -0.864,0.768 -2.688,0.864 -1.728,0 -3.072,-0.48 -1.248,-0.576 -0.96,-1.344 1.632,-1.824 2.4,-3.744 0.768,-2.016 0.192,-3.552 -0.48,-1.632 -2.784,-1.824 -4.896,-0.48 -9.408,5.376 -4.416,5.76 -5.184,13.248 -0.48,4.992 2.016,8.256 2.496,3.168 7.392,3.552 6.816,0.48 12.96,-3.936 6.24,-4.512 9.984,-13.536 0.288,-0.384 1.056,-0.192 0.768,0.096 1.44,0.768 0.672,0.672 0.384,1.248 -9.12,21.984 -28.512,21.216 -7.2,-0.384 -11.328,-5.568 -4.032,-5.184 -3.552,-12.192 0.576,-9.12 7.296,-16.512 6.72,-7.392 15.744,-7.296 z"
       id="path364" />
    <path
       d="m 557.6112,36.224872 q 5.184,0.096 6.816,3.936 1.728,3.744 0.192,9.984 -0.48,2.304 -2.016,7.296 -1.536,4.896 -2.112,7.296 -0.384,1.824 -0.576,2.784 -0.192,0.96 -0.288,2.304 0,1.344 0.384,2.016 0.48,0.672 1.44,0.672 3.072,0 7.104,-5.184 4.128,-5.184 7.104,-12.48 0.288,-0.384 1.056,-0.288 0.768,0.096 1.44,0.768 0.672,0.672 0.384,1.344 -1.632,3.84 -3.552,7.2 -1.824,3.264 -4.32,6.72 -2.4,3.36 -5.376,5.376 -2.976,2.016 -6.048,2.016 -8.448,0 -7.2,-8.928 0.192,-2.016 4.416,-19.392 1.824,-7.104 -2.208,-7.104 -2.976,0 -7.296,3.84 -4.32,3.744 -7.584,8.736 -2.4,8.16 -5.28,20.832 -0.288,0.672 -1.632,1.056 -1.248,0.288 -2.688,0.192 -1.536,0 -2.688,-0.576 -1.152,-0.576 -1.056,-1.632 1.536,-6.144 4.704,-17.76 3.072,-11.616 4.992,-19.296 0.768,-1.728 4.032,-1.248 3.36,0.384 3.456,2.4 l -2.4,9.024 q 3.36,-4.608 7.872,-8.256 4.512,-3.744 8.928,-3.648 z"
       id="path366" />
    <path
       d="m 597.83519,36.224872 q 7.776,-0.192 10.944,4.992 3.264,5.184 2.112,12.384 -1.152,7.2 -5.184,13.92 9.6,0.96 15.072,-12.672 0.288,-0.384 1.056,-0.192 0.864,0.096 1.536,0.768 0.672,0.576 0.384,1.248 -7.488,17.664 -21.024,14.208 -6.432,7.008 -15.36,7.008 -6.816,0 -10.656,-4.512 -3.84,-4.512 -2.112,-14.208 1.632,-9.6 8.256,-16.128 6.624,-6.528 14.976,-6.816 z m -0.768,5.664 q -4.896,0.288 -9.12,5.856 -4.128,5.568 -5.184,11.712 -2.016,12.864 5.856,12.864 4.416,0 8.256,-4.32 -1.44,-2.016 -0.192,-3.936 1.344,-1.92 3.168,-1.152 1.728,-3.648 2.592,-7.296 0.96,-3.744 0.864,-6.912 0,-3.168 -1.632,-5.088 -1.536,-1.92 -4.608,-1.728 z"
       id="path368" />
    <path
       d="m 643.05113,36.416872 q 10.464,-1.152 17.76,5.376 0.672,0.96 -1.248,2.88 -1.92,1.92 -2.88,0.96 -5.568,-4.416 -12,-3.648 -4.32,0.384 -8.352,3.648 -3.936,3.168 -6.72,8.448 -2.688,5.088 -3.264,10.08 -0.48,4.896 1.536,7.104 2.592,2.496 7.008,-1.248 4.512,-3.744 8.352,-11.52 2.496,-4.992 4.512,-12 0.672,-1.344 3.744,-0.48 3.168,0.768 2.976,2.112 -7.2,27.168 -7.68,28.704 12,-4.8 19.008,-21.984 0.288,-0.384 0.96,-0.192 0.768,0.096 1.44,0.768 0.672,0.576 0.48,1.152 -4.608,10.368 -9.888,16.32 -5.28,5.856 -13.536,9.6 -3.264,13.152 -7.296,17.855998 -3.936,4.8 -10.176,4.992 -4.32,0.192 -6.72,-2.112 -2.4,-2.304 -2.016,-6.623998 0.288,-2.4 1.632,-4.704 1.44,-2.208 3.168,-3.744 1.728,-1.536 4.704,-3.264 2.976,-1.728 4.992,-2.784 2.016,-0.96 5.472,-2.4 0.288,-0.864 1.92,-6.144 1.632,-5.376 2.592,-8.544 -7.008,12.672 -15.36,12.864 -5.952,0.192 -8.448,-4.32 -2.496,-4.608 -1.248,-11.328 1.248,-6.72 5.376,-13.056 3.648,-5.664 8.736,-8.928 5.088,-3.36 10.464,-3.84 z m -5.376,48.96 q -8.64,4.416 -10.752,8.832 -1.92,3.648 0.192,4.992 2.112,1.343998 4.992,-1.248 2.496,-2.304 3.84,-6.624 z"
       id="path370" />
    <path
       d="m 686.53917,36.608872 q 4.992,-0.864 10.272,0.288 5.28,1.152 8.832,4.8 0.768,0.96 -1.152,2.88 -1.824,1.92 -2.784,1.152 -6.432,-4.896 -13.344,-3.648 -3.936,0.672 -7.68,4.032 -3.648,3.264 -6.144,8.064 -2.688,4.896 -3.168,9.984 -0.48,5.088 1.44,7.104 2.304,2.4 6.336,-0.672 4.032,-3.072 7.776,-9.792 3.744,-6.72 5.472,-14.112 0.48,-1.056 2.208,-1.056 1.824,0 3.264,0.768 1.536,0.768 1.536,1.728 -3.744,13.632 -4.32,16.992 -1.152,6.72 1.92,6.72 2.976,0 7.296,-4.992 4.32,-4.992 7.104,-11.904 0.288,-0.48 1.056,-0.288 0.768,0.096 1.44,0.768 0.768,0.576 0.48,1.248 -9.216,20.544 -20.448,20.544 -3.36,0 -5.088,-3.168 -1.728,-3.264 -0.672,-8.448 -3.456,5.76 -6.816,9.024 -3.36,3.168 -8.256,3.264 -5.664,0.192 -8.256,-4.224 -2.688,-4.416 -1.44,-11.712 1.536,-8.832 8.16,-16.32 6.72,-7.584 14.976,-9.024 z"
       id="path372" />
    <path
       d="m 736.26715,36.416872 q 5.472,0.096 8.064,3.744 2.592,3.648 2.304,8.832 -0.192,5.088 -1.728,10.176 -1.536,4.992 -3.744,8.256 4.896,0.864 8.64,-2.016 3.84,-2.88 6.912,-10.56 0.288,-0.384 1.056,-0.192 0.768,0.096 1.44,0.768 0.672,0.672 0.48,1.248 -4.128,9.888 -9.696,12.96 -5.472,3.072 -11.52,1.056 -4.128,4.512 -9.12,6.24 -4.896,1.632 -8.928,0.576 -4.032,-1.056 -6.528,-4.224 -0.96,4.608 -3.456,14.976 -2.496,10.464 -3.456,15.455998 -0.288,0.864 -2.112,1.056 -1.824,0.288 -3.456,-0.192 -1.728,-0.48 -1.632,-1.344 6.912,-29.951998 15.744,-65.279998 0.288,-1.056 2.112,-1.248 1.92,-0.288 3.648,0.48 1.728,0.768 1.632,2.208 l -1.152,3.552 q 2.88,-3.072 6.912,-4.8 4.032,-1.824 7.584,-1.728 z m -3.36,5.76 q -3.072,0 -6.72,2.112 -3.552,2.112 -5.952,4.896 -2.4,9.024 -4.896,19.2 2.688,4.032 8.064,3.936 5.376,-0.096 8.832,-4.224 -1.152,-1.248 -0.864,-2.592 0.288,-1.44 1.536,-2.208 1.248,-0.864 2.208,-0.096 1.632,-3.264 2.496,-6.816 0.96,-3.648 1.056,-6.816 0.096,-3.264 -1.344,-5.28 -1.44,-2.112 -4.416,-2.112 z"
       id="path374" />
    <path
       d="m 797.03516,54.848872 q 0.288,-0.384 1.056,-0.192 0.768,0.096 1.44,0.768 0.672,0.672 0.384,1.248 -4.224,9.6 -9.984,15.456 -5.664,5.856 -11.424,5.856 -5.184,0 -7.392,-5.376 -2.208,-5.376 -2.4,-16.416 -5.088,4.992 -7.392,9.12 l -2.4,10.176 q -0.288,1.632 -3.744,1.824 -3.456,0.192 -3.744,-1.536 0,-0.384 0.096,-0.768 8.064,-32.64 17.664,-63.36 0.576,-0.768 2.304,-0.768 1.728,-0.096 3.456,0.672 1.824,0.768 1.44,1.92 -8.064,24.96 -12.384,41.664 9.504,-13.152 22.08,-19.296 1.92,-1.056 3.456,1.536 1.632,2.592 -0.288,3.84 -6.72,3.36 -14.208,9.984 -0.384,8.64 0.96,14.88 1.344,6.24 4.608,6.336 3.552,0 8.16,-4.416 4.608,-4.416 8.256,-13.152 z"
       id="path376" />
    <path
       d="m 819.11522,36.224872 q 7.776,-0.192 10.944,4.992 3.264,5.184 2.112,12.384 -1.152,7.2 -5.184,13.92 9.6,0.96 15.072,-12.672 0.288,-0.384 1.056,-0.192 0.864,0.096 1.536,0.768 0.672,0.576 0.384,1.248 -7.488,17.664 -21.024,14.208 -6.432,7.008 -15.36,7.008 -6.816,0 -10.656,-4.512 -3.84,-4.512 -2.112,-14.208 1.632,-9.6 8.256,-16.128 6.624,-6.528 14.976,-6.816 z m -0.768,5.664 q -4.896,0.288 -9.12,5.856 -4.128,5.568 -5.184,11.712 -2.016,12.864 5.856,12.864 4.416,0 8.256,-4.32 -1.44,-2.016 -0.192,-3.936 1.344,-1.92 3.168,-1.152 1.728,-3.648 2.592,-7.296 0.96,-3.744 0.864,-6.912 0,-3.168 -1.632,-5.088 -1.536,-1.92 -4.608,-1.728 z"
       id="path378" />
    <path
       d="m 853.96316,77.696872 q -14.88,-0.672 -12,-20.64 2.976,-23.232 10.848,-35.712 6.336,-9.984 15.744,-10.56 4.704,-0.192 7.68,1.824 3.072,2.016 3.744,5.472 0.672,3.36 -0.192,7.104 -0.864,3.744 -3.84,7.488 -2.976,3.744 -7.392,6.048 4.224,0.192 6.528,3.36 2.304,3.072 2.496,7.488 0.192,4.32 -1.152,9.216 -1.344,4.896 -3.936,8.832 4.896,0.672 8.64,-2.016 3.84,-2.688 7.008,-10.656 0.288,-0.384 1.056,-0.192 0.768,0.096 1.44,0.768 0.672,0.672 0.384,1.248 -4.32,9.888 -9.408,12.864 -5.088,2.976 -12,1.152 -6.912,7.296 -15.648,6.912 z m -1.44,-35.808 q 9.984,-4.992 12.48,-6.912 5.472,-3.936 7.488,-10.08 1.92,-5.76 -1.44,-7.392 -0.96,-0.48 -2.112,-0.48 -9.984,-0.384 -16.416,24.864 z m 2.496,30.336 q 4.416,0.192 8.64,-4.128 -1.536,-1.92 -0.096,-3.744 1.44,-1.92 3.168,-1.056 2.688,-4.896 3.168,-9.408 0.576,-4.608 -0.96,-7.392 -1.44,-2.784 -4.512,-2.88 -6.048,-0.288 -13.536,5.376 -5.088,22.848 4.128,23.232 z"
       id="path380" />
  </g>
  <g
     aria-label="GeekBrains"
     id="text2640"
     style="font-size:74.6667px;font-family:'Nexa Script';-inkscape-font-specification:'Nexa Script';fill:#c83737;stroke-width:6.30933;stroke-linecap:round;paint-order:markers fill stroke">
    <path
       d="m 423.75749,101.99604 q 6.64534,0.14933 9.70667,3.88267 3.06133,3.73333 0.672,9.55734 -2.09067,5.22667 -6.944,7.54133 -4.85334,2.24001 -10.60267,1.19467 -5.74934,-1.04533 -10.45334,-5.00267 -2.16534,3.50934 -3.584,8.58667 -1.34401,5.07734 -1.49334,10.00534 -0.0747,4.928 2.24,8.43734 2.31467,3.50933 7.01867,3.584 9.48267,0.14933 16.05334,-15.38134 0.29867,-0.672 1.64267,-0.672 1.41867,-0.0747 2.61334,0.448 1.19466,0.448 0.97066,1.19467 -3.28533,11.2 -5.07733,18.59201 4.62933,-1.94134 8.43733,-6.42134 3.88267,-4.48 6.42134,-10.82667 0.224,-0.29867 0.82133,-0.14934 0.59734,0.0747 1.12,0.59734 0.52267,0.52266 0.29867,0.97066 -3.65867,8.21334 -7.76534,12.76801 -4.032,4.55467 -10.528,7.392 -2.53867,10.08001 -5.67467,13.88801 -3.136,3.808 -8.064,3.808 -3.21067,0.0747 -5.15201,-1.568 -1.86666,-1.64267 -1.71733,-4.704 0.224,-4.33067 4.40534,-7.616 4.18133,-3.21067 11.12533,-6.04801 2.24,-7.616 2.76267,-9.93067 -5.97333,8.36267 -14.03734,8.13867 -5.45067,-0.14933 -8.88534,-3.136 -3.43466,-2.98667 -4.40533,-7.54134 -0.97067,-4.62933 -0.52267,-9.856 0.448,-5.30134 2.31467,-10.30401 1.94133,-5.00266 4.62934,-8.58667 -4.25601,-5.376 -4.33067,-11.79734 -0.0747,-1.12 1.568,-1.04533 1.792,0.14933 1.94133,1.26933 0,0.14934 0,0.224 0.448,4.62934 3.21067,8.28801 3.584,-4.40534 8.81067,-7.09334 5.22667,-2.76267 10.45334,-2.688 z m -0.37333,4.62934 q -3.88267,-0.0747 -7.91468,2.38933 -4.032,2.38934 -7.168,6.64534 5.45067,4.33067 11.72267,3.88267 6.27201,-0.52267 8.36267,-5.60001 1.41867,-3.136 -0.224,-5.22667 -1.64266,-2.09066 -4.77866,-2.09066 z m -4.10667,53.76002 q -8.06401,4.55467 -8.96001,8.06401 -0.59733,1.94133 0.52267,2.53866 1.12,0.672 2.16533,-0.29866 2.016,-0.224 3.50934,-2.688 1.49333,-2.46401 2.76267,-7.61601 z"
       id="path411" />
    <path
       d="m 458.8509,122.38005 q 3.65867,0.14933 5.74934,2.16533 2.16533,1.94134 2.24,4.55467 0.14933,2.61334 -1.04534,5.37601 -2.24,4.48 -7.24267,6.12267 -5.00267,1.64266 -11.648,-0.14934 -0.59734,3.95734 1.19467,6.64534 1.86666,2.688 5.67466,3.21067 2.98667,0.448 6.27201,-0.52267 3.28533,-1.04533 6.79467,-4.40534 3.50933,-3.36 5.74933,-8.66133 0.224,-0.29867 0.74667,-0.14934 0.59733,0.0747 1.12,0.59734 0.52267,0.52266 0.37333,0.97066 -6.944,17.32268 -22.02667,16.57601 -7.54134,-0.448 -10.60267,-5.6 -2.98667,-5.22667 -1.04534,-12.09601 1.94134,-6.944 6.94401,-10.976 5.00266,-4.032 10.752,-3.65867 z m -0.97067,4.256 q -2.98666,-0.0747 -6.12267,3.136 -3.06133,3.13601 -4.256,7.46667 9.63201,1.86667 12.61867,-3.95733 1.41867,-2.24 0.896,-4.40534 -0.448,-2.24 -3.136,-2.24 z"
       id="path413" />
    <path
       d="m 490.06153,122.38005 q 3.65866,0.14933 5.74933,2.16533 2.16534,1.94134 2.24,4.55467 0.14934,2.61334 -1.04533,5.37601 -2.24,4.48 -7.24267,6.12267 -5.00267,1.64266 -11.64801,-0.14934 -0.59733,3.95734 1.19467,6.64534 1.86667,2.688 5.67467,3.21067 2.98667,0.448 6.272,-0.52267 3.28534,-1.04533 6.79467,-4.40534 3.50934,-3.36 5.74934,-8.66133 0.224,-0.29867 0.74667,-0.14934 0.59733,0.0747 1.12,0.59734 0.52266,0.52266 0.37333,0.97066 -6.944,17.32268 -22.02668,16.57601 -7.54133,-0.448 -10.60267,-5.6 -2.98667,-5.22667 -1.04533,-12.09601 1.94133,-6.944 6.944,-10.976 5.00267,-4.032 10.75201,-3.65867 z m -0.97067,4.256 q -2.98667,-0.0747 -6.12267,3.136 -3.06134,3.13601 -4.256,7.46667 9.632,1.86667 12.61867,-3.95733 1.41867,-2.24 0.896,-4.40534 -0.448,-2.24 -3.136,-2.24 z"
       id="path415" />
    <path
       d="m 535.30949,136.71606 q 0.224,-0.29867 0.82133,-0.14934 0.59734,0.0747 1.12,0.59734 0.52267,0.448 0.37334,0.97066 -3.21067,7.16801 -7.69067,11.87201 -4.48,4.704 -9.40801,4.704 -8.66133,0 -8.064,-15.08267 5.00267,-1.94134 8.13867,-4.55467 3.21067,-2.688 3.43467,-4.55467 0.29866,-1.94133 -0.82134,-3.06133 -2.688,-1.792 -7.84,2.24 -5.07734,4.032 -6.57067,9.856 -2.016,7.91467 -3.136,13.21601 -0.29867,0.896 -1.94134,1.26933 -1.568,0.448 -2.912,0 -1.41866,-0.448 -1.19466,-1.568 1.71733,-7.24267 3.88266,-15.23201 2.16534,-7.98933 3.28534,-12.02133 1.19467,-4.03201 3.73333,-12.54401 2.53867,-8.58667 2.83734,-9.55734 0.448,-0.59733 1.71733,-0.59733 1.344,-0.0747 2.688,0.59733 1.34401,0.59733 1.19467,1.49334 -0.448,1.64266 -3.65867,11.872 -3.136,10.22934 -4.032,13.81334 1.94134,-2.98667 4.48,-4.928 2.61334,-1.94134 5.00267,-2.53867 2.38934,-0.672 4.48001,-0.448 2.09066,0.224 3.21066,1.41867 1.49334,1.49333 1.64267,3.88267 0.14933,2.31466 -1.04533,4.77867 -1.19467,2.464 -4.25601,4.85333 -2.98666,2.38934 -7.31733,3.88267 -0.37334,9.10934 4.55467,9.184 3.43467,0 6.944,-3.50933 3.584,-3.50934 6.34667,-10.15467 z"
       id="path417" />
    <path
       d="m 575.18153,101.84671 q 8.58667,0.0747 13.66401,4.40533 5.07733,4.256 3.88267,10.75201 -0.74667,4.10667 -4.25601,6.86933 -3.43466,2.68801 -7.392,3.21067 4.928,0.672 8.21334,4.77867 3.36,4.032 2.688,9.40801 -0.97067,6.64533 -5.30134,10.08 -4.256,3.43467 -11.2,3.28534 -6.496,-0.14934 -13.51467,-5.30134 -3.65867,5.152 -10.30401,5.30134 -3.95733,0 -6.64534,-1.86667 -2.688,-1.94134 -2.61333,-5.52534 0.0747,-4.032 2.912,-6.048 2.912,-2.09067 6.86934,-1.64267 4.032,0.37334 7.616,2.83734 1.344,-3.36 2.61334,-8.06401 1.344,-4.704 2.31466,-8.288 0.97067,-3.65867 2.16534,-7.09334 1.26933,-3.50933 3.06133,-5.67467 1.792,-2.24 4.256,-2.83733 1.71734,-0.52267 2.76267,0.896 0.672,0.97067 -0.224,1.64267 -1.12,0.52266 -2.016,1.568 -0.82133,0.97066 -1.49333,2.53866 -0.59734,1.49334 -0.97067,2.61334 -0.37333,1.12 -0.97067,3.136 -0.52266,1.94133 -0.74666,2.688 6.19733,0.224 10.528,-1.94133 4.33067,-2.24 5.45067,-6.64534 1.12,-4.55467 -1.94133,-7.46667 -2.98667,-2.912 -9.63201,-2.98667 -6.19733,-0.0747 -11.12534,2.61334 -4.85333,2.688 -6.42133,6.944 -1.49334,4.18134 1.344,9.40801 0.448,1.19466 -1.19467,2.31466 -1.568,1.12 -2.61333,0.29867 -3.06134,-2.24 -3.88267,-5.74934 -0.82134,-3.50933 0.14933,-6.79467 1.04533,-3.36 3.36,-5.824 7.46667,-7.91467 20.60801,-7.84 z m -5.824,27.32801 q -0.14933,0.448 -1.26934,4.48 -1.04533,3.95734 -2.016,6.72001 -0.896,2.76266 -2.016,5.152 4.10667,3.43467 8.88534,4.33067 4.85334,0.896 8.58667,-1.49334 3.808,-2.38933 4.40534,-7.84 0.448,-4.48 -2.016,-7.24267 -2.38934,-2.76267 -6.34667,-3.584 -3.80801,-0.82134 -8.21334,-0.52267 z m -16.57601,14.41067 q -3.28533,-0.52266 -4.704,1.86667 -1.19467,2.09067 0.52267,3.65867 1.344,1.26933 3.95733,1.12 3.06134,-0.224 5.52534,-4.18133 -3.136,-2.31467 -5.30134,-2.46401 z"
       id="path419" />
    <path
       d="m 598.40283,140.89739 q -0.29867,0.29867 -0.896,0.224 -0.59734,-0.14933 -1.12,-0.59733 -0.52267,-0.448 -0.29867,-0.82133 3.65867,-7.98934 6.048,-17.09868 -2.98667,-4.18133 -0.896,-6.86934 1.344,-1.71733 3.28534,-1.19466 2.464,0.74666 2.09066,4.55467 -0.14933,0.672 -0.29866,1.41866 0.74667,0.82134 2.09067,2.16534 1.344,1.344 2.24,2.31467 0.97066,0.97066 2.016,2.24 1.04533,1.26933 1.49333,2.31466 0.52267,0.97067 0.448,2.09067 0,1.12 -0.74666,2.09067 -6.04801,7.46667 -6.04801,12.39467 0,4.10667 3.43467,4.10667 3.21067,0.14933 6.944,-3.28533 3.80801,-3.43467 6.64534,-10.22934 0.224,-0.29867 0.82133,-0.14934 0.59734,0.14934 1.12,0.672 0.52267,0.448 0.37334,0.896 -7.16801,16.80001 -17.84534,16.50135 -3.80801,-0.0747 -5.82401,-2.31467 -2.016,-2.31467 -2.016,-5.824 -0.0747,-5.22667 6.19734,-14.18668 0.52267,-0.74667 0.59733,-1.568 0.0747,-0.82133 -0.52266,-1.71733 -0.52267,-0.97067 -0.89601,-1.49334 -0.37333,-0.52266 -1.41866,-1.568 -0.97067,-1.12 -1.12,-1.344 -2.24,8.66134 -5.89867,16.27734 z"
       id="path421" />
    <path
       d="m 641.03752,122.52938 q 3.88267,-0.672 7.98934,0.224 4.10667,0.896 6.86934,3.73334 0.59733,0.74667 -0.896,2.24 -1.41867,1.49333 -2.16534,0.896 -5.00267,-3.808 -10.37867,-2.83733 -3.06133,0.52266 -5.97333,3.136 -2.83734,2.53867 -4.77867,6.272 -2.09067,3.808 -2.464,7.76534 -0.37334,3.95733 1.12,5.52533 1.792,1.86667 4.928,-0.52266 3.136,-2.38934 6.048,-7.61601 2.912,-5.22667 4.256,-10.976 0.37334,-0.82134 1.71734,-0.82134 1.41866,0 2.53867,0.59734 1.19466,0.59733 1.19466,1.344 -2.912,10.60267 -3.36,13.216 -0.896,5.22667 1.49333,5.22667 2.31467,0 5.67467,-3.88266 3.36001,-3.88267 5.52534,-9.25868 0.224,-0.37333 0.82133,-0.224 0.59734,0.0747 1.12,0.59734 0.59734,0.448 0.37334,0.97066 -7.16801,15.97868 -15.90401,15.97868 -2.61333,0 -3.95733,-2.464 -1.34401,-2.53867 -0.52267,-6.57067 -2.688,4.48 -5.30134,7.01867 -2.61333,2.464 -6.42133,2.53867 -4.40534,0.14933 -6.42134,-3.28534 -2.09067,-3.43467 -1.12,-9.10934 1.19467,-6.86933 6.34667,-12.69334 5.22667,-5.89867 11.648,-7.01867 z"
       id="path423" />
    <path
       d="m 668.88821,117.75071 q -1.49334,0 -2.46401,-0.97066 -0.896,-1.04534 -0.74666,-2.61334 0.14933,-1.64266 1.26933,-2.61333 1.12,-0.97067 2.688,-0.97067 1.568,0.0747 2.464,1.04534 0.896,0.97066 0.82134,2.53866 -0.14934,1.64267 -1.26934,2.61334 -1.12,0.97066 -2.76266,0.97066 z m -5.67467,36.88536 q -3.73334,0.0747 -4.85334,-2.16534 -1.19467,-2.24 -0.224,-6.64533 1.344,-5.67467 5.97334,-22.25068 0.59733,-1.26934 3.136,-0.82134 2.53867,0.37334 2.61333,1.568 -4.704,16.72535 -5.67467,20.83201 -0.672,2.31467 -0.52266,3.88267 0.14933,1.49334 1.49333,1.41867 2.688,-0.0747 6.12267,-4.256 3.43467,-4.256 5.45067,-9.40801 0.29867,-0.37333 0.896,-0.29866 0.59733,0.0747 1.12,0.672 0.52267,0.52266 0.29867,1.04533 -1.26934,2.912 -2.76267,5.52534 -1.49334,2.61333 -3.50934,5.22667 -2.016,2.61333 -4.55467,4.18133 -2.464,1.49334 -5.00266,1.49334 z"
       id="path425" />
    <path
       d="m 697.18687,122.23072 q 4.032,0.0747 5.30133,3.06133 1.344,2.912 0.14934,7.76534 -0.37334,1.792 -1.568,5.67467 -1.19467,3.808 -1.64267,5.67467 -0.29867,1.41867 -0.448,2.16533 -0.14934,0.74667 -0.224,1.792 0,1.04534 0.29866,1.568 0.37334,0.52267 1.12001,0.52267 2.38933,0 5.52533,-4.032 3.21067,-4.032 5.52534,-9.70667 0.224,-0.29867 0.82133,-0.224 0.59733,0.0747 1.12,0.59733 0.52267,0.52267 0.29867,1.04533 -1.26934,2.98667 -2.76267,5.60001 -1.41867,2.53867 -3.36,5.22667 -1.86667,2.61333 -4.18134,4.18133 -2.31466,1.568 -4.704,1.568 -6.57067,0 -5.6,-6.944 0.14933,-1.568 3.43467,-15.08267 1.41866,-5.52534 -1.71734,-5.52534 -2.31467,0 -5.67467,2.98667 -3.36,2.912 -5.89867,6.79467 -1.86666,6.34667 -4.10666,16.20267 -0.224,0.52267 -1.26934,0.82134 -0.97067,0.224 -2.09067,0.14933 -1.19466,0 -2.09066,-0.448 -0.896,-0.448 -0.82134,-1.26934 1.19467,-4.77866 3.65867,-13.81334 2.38934,-9.03467 3.88267,-15.008 0.59733,-1.344 3.136,-0.97067 2.61334,0.29867 2.688,1.86667 l -1.86667,7.01867 q 2.61334,-3.584 6.12267,-6.42134 3.50934,-2.912 6.94401,-2.83733 z"
       id="path427" />
    <path
       d="m 720.78153,154.71073 q -3.88267,-0.0747 -6.12267,-2.98667 -2.24,-2.912 -1.12,-7.54133 0.448,-1.26934 2.016,-1.344 1.64267,-0.14934 1.792,0.74666 -0.672,3.13601 0.448,4.92801 1.19467,1.792 3.43467,1.792 2.98667,-0.14934 4.40534,-2.53867 -1.49334,-1.19467 -0.97067,-3.136 0.59733,-1.94134 2.16533,-1.71734 0.14934,-2.53866 -2.09066,-8.96 -2.24,-6.42134 -2.24,-10.00534 -4.70401,4.62934 -10.22934,16.94934 -0.29867,0.37334 -0.896,0.29867 -0.52267,-0.14933 -1.04534,-0.59733 -0.52266,-0.52267 -0.37333,-0.896 5.89867,-13.81334 11.648,-18.74135 2.98667,-2.688 5.60001,-1.64266 1.86666,0.74666 1.26933,2.61333 -0.14933,0.672 -0.74667,1.344 0.224,3.21067 1.26934,6.72 1.12,3.50934 2.016,5.74934 0.896,2.16533 1.41867,5.376 0.52266,3.136 -0.37334,5.60001 6.49601,0 10.60267,-10.00534 0.224,-0.29867 0.82134,-0.14934 0.59733,0.0747 1.12,0.59734 0.52267,0.52266 0.29867,0.97066 -5.07734,12.17068 -14.11201,11.57334 -1.568,2.38934 -4.256,3.73334 -2.688,1.344 -5.74934,1.26933 z"
       id="path429" />
  </g>
</svg>
